<svg width="21" height="21" viewBox="0 0 21 21" fill="none" xmlns="http://www.w3.org/2000/svg">
<path d="M9.57552 16.6386L8.87588 15.3819C8.5584 14.8117 8.07961 14.3479 7.49957 14.0487L6.42901 13.4966C5.9344 13.2415 5.93332 12.5346 6.42713 12.278L7.50849 11.716C8.08299 11.4175 8.55744 10.9572 8.87326 10.392L9.65029 9.00133C9.9289 8.50269 10.6592 8.54295 10.8813 9.06919L11.3009 10.0633C11.6254 10.832 12.2279 11.45 12.9881 11.7939L13.9594 12.2333C14.5013 12.4785 14.4958 13.25 13.9504 13.4875L12.875 13.9556C12.0639 14.3087 11.4276 14.9715 11.1079 15.7964L10.8147 16.5528C10.6047 17.0946 9.85822 17.1463 9.57552 16.6386Z" stroke="#833FFF" stroke-width="2.62779"/>
</svg>
