<svg width="21" height="21" viewBox="0 0 21 21" fill="none" xmlns="http://www.w3.org/2000/svg">
<path d="M16.863 9.16138V16.7688C16.863 17.2661 16.6655 17.743 16.3139 18.0946C15.9622 18.4463 15.4853 18.6438 14.988 18.6438H6.23804C5.74076 18.6438 5.26384 18.4463 4.91221 18.0946C4.56058 17.743 4.36304 17.2661 4.36304 16.7688V4.2688C4.36304 3.77152 4.56058 3.2946 4.91221 2.94297C5.26384 2.59134 5.74076 2.3938 6.23804 2.3938H10.0955C10.4269 2.39385 10.7447 2.5255 10.9791 2.75981L16.497 8.27778C16.7313 8.51215 16.863 8.82997 16.863 9.16138Z" stroke="#A8A8A8" stroke-width="1.25" stroke-linejoin="round"/>
<path d="M10.613 2.7063V7.3938C10.613 7.72532 10.7447 8.04326 10.9792 8.27768C11.2136 8.5121 11.5315 8.6438 11.863 8.6438H16.5505M7.48804 11.7688H13.738M7.48804 14.8938H13.738" stroke="#A8A8A8" stroke-width="1.25" stroke-linecap="round" stroke-linejoin="round"/>
</svg>
