<svg width="43" height="41" viewBox="0 0 43 41" fill="none" xmlns="http://www.w3.org/2000/svg">
<path fill-rule="evenodd" clip-rule="evenodd" d="M11.2822 30.8332L11.2067 30.7508L11.1245 30.6751L10.6223 30.2126C10.6939 30.214 10.7656 30.2147 10.8374 30.2147C16.6348 30.2147 21.336 25.5213 21.3486 19.7268C21.361 25.4552 25.9556 30.1075 31.6617 30.2129L31.1742 30.6487L31.0585 30.7521L30.9557 30.8685L27.1159 35.2166C24.0155 38.7274 18.556 38.7766 15.3928 35.3223L11.2822 30.8332ZM31.8597 9.1924C26.0623 9.1924 21.3611 13.8859 21.3486 19.6803C21.336 13.8859 16.6348 9.1924 10.8374 9.1924C10.3756 9.1924 9.92069 9.22219 9.47458 9.27994L12.0579 6.69664C17.189 1.56556 25.5081 1.56555 30.6392 6.69663L33.2225 9.27993C32.7764 9.22218 32.3215 9.1924 31.8597 9.1924ZM39.5015 11.8427C42.8412 15.1824 43.4482 20.181 41.3985 24.1249C40.5148 26.0282 39.0782 27.6227 37.295 28.7021L32.9254 32.6079L29.0856 36.956C24.9518 41.6371 17.6723 41.7027 13.4548 37.0969L9.34415 32.6079L4.0283 27.7114C3.81778 27.5322 3.61441 27.3448 3.41869 27.1498L3.38985 27.1233C-1.00439 23.0757 -1.14581 16.1841 3.07868 11.9596L10.1998 4.83851C16.357 -1.31879 26.34 -1.31879 32.4973 4.8385L39.5015 11.8427ZM39.7431 19.7036C39.7431 20.8652 39.4918 21.9682 39.0407 22.9611C38.6157 23.765 38.0426 24.5094 37.3227 25.1529L35.7404 26.5672C34.5948 27.2163 33.2705 27.5869 31.8597 27.5869C27.5058 27.5869 23.9763 24.0574 23.9763 19.7036C23.9763 15.3497 27.5058 11.8202 31.8597 11.8202C36.2136 11.8202 39.7431 15.3497 39.7431 19.7036ZM5.76708 25.7403L5.23959 25.2544C3.82676 23.8297 2.95405 21.8685 2.95405 19.7036C2.95405 15.3497 6.48355 11.8202 10.8374 11.8202C15.1913 11.8202 18.7208 15.3497 18.7208 19.7036C18.7208 24.0574 15.1913 27.5869 10.8374 27.5869C8.90651 27.5869 7.13775 26.8927 5.76708 25.7403ZM10.8374 21.1206C11.62 21.1206 12.2544 20.4862 12.2544 19.7036C12.2544 18.921 11.62 18.2866 10.8374 18.2866C10.0548 18.2866 9.42044 18.921 9.42044 19.7036C9.42044 20.4862 10.0548 21.1206 10.8374 21.1206ZM10.8374 23.7484C13.0713 23.7484 14.8822 21.9375 14.8822 19.7036C14.8822 17.4697 13.0713 15.6588 10.8374 15.6588C8.60355 15.6588 6.79265 17.4697 6.79265 19.7036C6.79265 21.9375 8.60355 23.7484 10.8374 23.7484ZM33.2767 19.7036C33.2767 20.4862 32.6423 21.1206 31.8597 21.1206C31.0772 21.1206 30.4428 20.4862 30.4428 19.7036C30.4428 18.921 31.0772 18.2866 31.8597 18.2866C32.6423 18.2866 33.2767 18.921 33.2767 19.7036ZM35.9045 19.7036C35.9045 21.9375 34.0936 23.7484 31.8597 23.7484C29.6259 23.7484 27.815 21.9375 27.815 19.7036C27.815 17.4697 29.6259 15.6588 31.8597 15.6588C34.0936 15.6588 35.9045 17.4697 35.9045 19.7036ZM21.0782 31.6626C20.3526 31.6626 19.7643 32.2509 19.7643 32.9765C19.7643 33.7021 20.3526 34.2904 21.0782 34.2904H21.6188C22.3445 34.2904 22.9327 33.7021 22.9327 32.9765C22.9327 32.2509 22.3445 31.6626 21.6188 31.6626H21.0782Z" fill="#833FFF"/>
</svg>
