<svg width="25" height="25" viewBox="0 0 25 25" fill="none" xmlns="http://www.w3.org/2000/svg">
<path d="M19.895 6.5188H9.48877C8.01313 6.5188 6.81689 7.71504 6.81689 9.19067V19.5969C6.81689 21.0726 8.01313 22.2688 9.48877 22.2688H19.895C21.3707 22.2688 22.5669 21.0726 22.5669 19.5969V9.19067C22.5669 7.71504 21.3707 6.5188 19.895 6.5188Z" stroke="#A8A8A8" stroke-width="1.5" stroke-linejoin="round"/>
<path d="M18.7935 6.5188L18.8169 5.3938C18.8149 4.69821 18.5377 4.03168 18.0459 3.53983C17.554 3.04797 16.8875 2.77078 16.1919 2.7688H6.06689C5.27197 2.77115 4.51027 3.08797 3.94817 3.65007C3.38607 4.21217 3.06924 4.97387 3.06689 5.7688V15.8938C3.06887 16.5894 3.34607 17.2559 3.83793 17.7478C4.32978 18.2396 4.99631 18.5168 5.69189 18.5188H6.81689" stroke="#A8A8A8" stroke-width="1.5" stroke-linecap="round" stroke-linejoin="round"/>
</svg>
