<svg width="25" height="24" viewBox="0 0 25 24" fill="none" xmlns="http://www.w3.org/2000/svg">
<path d="M16.4644 9H18.3394C18.8366 9 19.3135 9.19754 19.6652 9.54917C20.0168 9.90081 20.2144 10.3777 20.2144 10.875V19.875C20.2144 20.3723 20.0168 20.8492 19.6652 21.2008C19.3135 21.5525 18.8366 21.75 18.3394 21.75H7.08936C6.59207 21.75 6.11516 21.5525 5.76353 21.2008C5.4119 20.8492 5.21436 20.3723 5.21436 19.875V10.875C5.21436 10.3777 5.4119 9.90081 5.76353 9.54917C6.11516 9.19754 6.59207 9 7.08936 9H8.96436M16.4644 6L12.7144 2.25M12.7144 2.25L8.96436 6M12.7144 2.25V15.0469" stroke="#A8A8A8" stroke-width="1.5" stroke-linecap="round" stroke-linejoin="round"/>
</svg>
